<svg height="439pt" viewBox="0 -7 439.43646 439" width="439pt" xmlns="http://www.w3.org/2000/svg"><path d="m312 392.21875c0 13.253906 10.746094 24 24 24s24-10.746094 24-24-10.746094-24-24-24-24 10.746094-24 24zm0 0" fill="#9bc9ff"/><path d="m152 392.21875c0 13.253906 10.746094 24 24 24s24-10.746094 24-24-10.746094-24-24-24-24 10.746094-24 24zm0 0" fill="#9bc9ff"/><path d="m416.503906 273.164062 22.878906-192c.128907-1.097656.023438-2.207031-.304687-3.257812-.113281-.257812-.238281-.507812-.382813-.753906-.28125-.734375-.671874-1.425782-1.160156-2.046875-.046875-.0625-.0625-.144531-.109375-.199219-.257812-.207031-.523437-.402344-.800781-.585938-.484375-.457031-1.019531-.855468-1.601562-1.183593-.433594-.1875-.882813-.335938-1.34375-.4375-.414063-.183594-.84375-.324219-1.289063-.425781-.167969 0-.320313.046874-.488281 0-.167969-.046876-.300782-.054688-.460938-.054688h-342.21875l-7.335937-51.402344c-1.738281-11.792968-11.835938-20.546875-23.757813-20.597656h-50.128906c-4.417969 0-8 3.582031-8 8s3.582031 8 8 8h50.128906c3.980469 0 7.355469 2.925781 7.917969 6.863281l44.066406 308.535157c1.738281 11.796874 11.835938 20.550781 23.757813 20.601562h34.128906v9.136719c-15.601562 4.027343-25.777344 19.027343-23.746094 35.015625 2.03125 15.984375 15.632813 27.96875 31.746094 27.96875s29.714844-11.984375 31.746094-27.96875c2.03125-15.988282-8.144532-30.988282-23.746094-35.015625v-9.136719h144v9.136719c-15.601562 4.027343-25.777344 19.027343-23.746094 35.015625 2.03125 15.984375 15.632813 27.96875 31.746094 27.96875s29.714844-11.984375 31.746094-27.96875c2.03125-15.988282-8.144532-30.988282-23.746094-35.015625v-9.136719h24c4.417969 0 8-3.582031 8-8s-3.582031-8-8-8h-234.128906c-3.980469 0-7.355469-2.925781-7.917969-6.863281l-7.015625-49.136719h289.597656c1.320313.109375 2.632813-.261719 3.703125-1.039062.570313-.265626 1.109375-.589844 1.601563-.976563.277344-.296875.527344-.613281.753906-.953125.378906-.390625.714844-.820312 1.007812-1.28125.472657-.871094.777344-1.824219.902344-2.804688zm-224.503906 119.054688c.039062 7.773438-5.515625 14.453125-13.167969 15.828125-7.652343 1.375-15.1875-2.949219-17.859375-10.25-2.667968-7.300781.292969-15.46875 7.027344-19.355469v13.777344c0 4.417969 3.582031 8 8 8s8-3.582031 8-8v-13.777344c4.933594 2.835938 7.984375 8.085938 8 13.777344zm160 0c.039062 7.773438-5.515625 14.453125-13.167969 15.828125-7.652343 1.375-15.1875-2.949219-17.859375-10.25-2.667968-7.300781.292969-15.46875 7.027344-19.355469v13.777344c0 4.417969 3.582031 8 8 8s8-3.582031 8-8v-13.777344c4.933594 2.835938 7.984375 8.085938 8 13.777344zm68.542969-288.207031-19.085938 160.207031h-47.855469l20.972657-176h47.824219zm-193.734375-15.792969h60.34375l-6.351563 176h-43.585937zm-5.601563 176h-40.582031l-25.082031-176h55.199219zm81.992188-176h55.199219l-20.941407 176h-40.609375zm-211.65625 0h47.832031l25.082031 176h-47.808593zm0 0" fill="#1e81ce"/></svg>